<svg xmlns="http://www.w3.org/2000/svg" viewBox="0 0 100 100" width="100" height="100">
  <defs>
    <clipPath id="left"><rect x="0" y="0" width="52" height="100"/></clipPath>
    <clipPath id="right"><rect x="48" y="0" width="52" height="100"/></clipPath>
  </defs>
  <!-- Full gear shape - Orange half (left side when looking at it) -->
  <g clip-path="url(#left)">
    <path d="M50,8 L54,18 L62,12 L63,24 L73,21 L70,32 L82,34 L75,44 L86,50 L75,56 L82,66 L70,68 L73,79 L63,76 L62,88 L54,82 L50,92 L46,82 L38,88 L37,76 L27,79 L30,68 L18,66 L25,56 L14,50 L25,44 L18,34 L30,32 L27,21 L37,24 L38,12 L46,18 L50,8 Z" 
          fill="#E8751A"/>
  </g>
  <!-- Full gear shape - Blue half (right side) -->
  <g clip-path="url(#right)">
    <path d="M50,8 L54,18 L62,12 L63,24 L73,21 L70,32 L82,34 L75,44 L86,50 L75,56 L82,66 L70,68 L73,79 L63,76 L62,88 L54,82 L50,92 L46,82 L38,88 L37,76 L27,79 L30,68 L18,66 L25,56 L14,50 L25,44 L18,34 L30,32 L27,21 L37,24 L38,12 L46,18 L50,8 Z" 
          fill="#1E5FAA"/>
  </g>
  <!-- Center hole -->
  <circle cx="50" cy="50" r="24" fill="white"/>
  <!-- Lightning bolt - centered -->
  <polygon points="54,30 44,50 51,50 46,70 58,46 50,46" fill="#1a1a1a"/>
  <!-- Wrench handle (simplified, overlapping top-right) -->
  <g transform="translate(62,22) rotate(45)">
    <rect x="-2" y="-12" width="4" height="20" rx="1.5" fill="#1a1a1a"/>
    <circle cx="0" cy="-14" r="5" fill="#1a1a1a"/>
    <circle cx="0" cy="-14" r="2.5" fill="white"/>
  </g>
</svg>
